# xmcd
#
# Track frame offsets:
#	150
#	17600
#	28933
#	48072
#	63461
#	75911
#	89233
#	105221
#	119662
#	135219
#	152422
#	167078
#	182820
#	196344
#	219550
#	231363
#	244505
#	263189
#	275672
#	291772
#
# Disc length: 4062 seconds
#
# Revision: 0
# Processed by: cddbd v1.5.2PL0 Copyright (c) Steve Scherf et al.
# Submitted via: EasyCDDAExtractor 12.0.1.1
#
DISCID=110fdc14
DTITLE=Various Artist - 100% Svensk Country
DYEAR=1998
DGENRE=Country
TTITLE0=Mats Rådberg - Crocodile Shoes
TTITLE1=Sigge Hill - Kvinnor är smartast
TTITLE2=Alf Robertson - Det är mig du tar i båten
TTITLE3=Inger Nordström and Rhinestone band - Hey Conductor
TTITLE4=Mats Rådberg and Rankarna - Jag ger dig min sång
TTITLE5=Kikki Danielsson - A Way With A Broken Heart
TTITLE6=Kentucky - Långt innan solen går ner
TTITLE7=Aaron Springfield - Wanderin' Boots
TTITLE8=Mats Rådberg and Rankarna - Peta in en pinne i brasan
TTITLE9=Kikki Danielsson - U.S Of America
TTITLE10=Kentucky - Leaving This Town
TTITLE11=Mats Rådberg - Bye Bye Dreamer
TTITLE12=Country Queen - Vart flög den ängeln
TTITLE13=Hasse Andersson and Kvinnaböske band - Änglahund
TTITLE14=Kikki Danielsson and Kjell Roos - Make It Through The Gray
TTITLE15=Sigge Hill - Jenny
TTITLE16=Alf Robertson - Hundar ungar och hembryggt äppelvin
TTITLE17=Mats Rådberg and Rankarna - Jag har varit på Möja
TTITLE18=Joyride - Tusen skäl till att stanna
TTITLE19=Alf Robertson - I en gyllene kaross
EXTD=
EXTT0=
EXTT1=
EXTT2=
EXTT3=
EXTT4=
EXTT5=
EXTT6=
EXTT7=
EXTT8=
EXTT9=
EXTT10=
EXTT11=
EXTT12=
EXTT13=
EXTT14=
EXTT15=
EXTT16=
EXTT17=
EXTT18=
EXTT19=
PLAYORDER=
